# xmcd CD database file
#
# Track frame offsets:
#	150
#	15863
#	29895
#	44365
#	54663
#	69751
#	83615
#	98530
#	114686
#	127014
#	142232
#	157672
#	171312
#	183555
#
# Disc length: 2656 seconds
#
# Revision: 3
# Processed by: cddbd v1.4PL0 Copyright (c) Steve Scherf et al.
# Submitted via: CDex 1.40Release
#
DISCID=b70a5e0e
DTITLE=Various Artist - Ladies of Blues (Disk 2 of 3)
DYEAR=1997
DGENRE=Blues
TTITLE0=Lizzie Miles - Hate A Man Like You
TTITLE1=Victoria Spivey - Moaning The Blues
TTITLE2=Lillian Glinn - Shreveport Blues
TTITLE3=Lottie Beaman - Rolling Log Blues
TTITLE4=Hattie Hart - Won't You Be Kind To Me
TTITLE5=Mary Johnson - Black Man Blues
TTITLE6=Edith Johnson - Can't Make Another Day
TTITLE7=Alice More - Black and Evil Blues
TTITLE8=Mattie Delaney - Tallahatchie River Blues
TTITLE9=Rosa Henderson - Can't Be Bothered With No Sheiks
TTITLE10=Mildred Bailey - Downhearted Blues
TTITLE11=Lucille Bogan - Skin Game Blues
TTITLE12=Georgia White - Trouble In Mind
TTITLE13=Lil Johnson - Take It Easy Greasy
EXTD=Submitted by William Hale YEAR: 1997 ID3G: 0
EXTT0=
EXTT1=
EXTT2=
EXTT3=
EXTT4=
EXTT5=
EXTT6=
EXTT7=
EXTT8=
EXTT9=
EXTT10=
EXTT11=
EXTT12=
EXTT13=
PLAYORDER=
